# xmcd
#
# Track frame offsets: 
#        150
#        13880
#        28861
#        46018
#        64036
#        83833
#        102960
#        115312
#        129987
#        148153
#        168061
#        193139
#        206411
#
# Disc length: 3087 seconds
#
# Revision: 11
# Processed by: cddbd v1.5.2PL0 Copyright (c) Steve Scherf et al.
# Submitted via: ExactAudioCopy v1.3
#
DISCID=af0c0d0d
DTITLE=Various Artist - Just Because I'm A Woman,Songs Of Dolly Parto
DTITLE=n
DYEAR=2003
DGENRE=Country
TTITLE0=Alison Krauss - 9 To 5
TTITLE1=Mellissa Etheridge - I Will Always Love You
TTITLE2=Norah Jones - The Grass Is Blue
TTITLE3=Joan Osborne - Do I Ever Cross Your Mind
TTITLE4=Shelby Lynne - The Seeker
TTITLE5=Mindy Smith - Jolene
TTITLE6=Emmylou Harris - To Daddy
TTITLE7=Shania Twain With Alison Krauss and Union Station - Coat Of Many
TTITLE7=Colors
TTITLE8=Kasey Chambers - Little Sparrow
TTITLE9=Sinéad O'Connor - Dagger Through The Heart
TTITLE10=Allison Moorer - Light Of A Clear Blue Morning
TTITLE11=Me'shell N'degeocello - Two Doors Down
TTITLE12=Dolly Parton - Just Because I'm A Woman
EXTD=
EXTT0=
EXTT1=
EXTT2=
EXTT3=
EXTT4=
EXTT5=
EXTT6=
EXTT7=
EXTT8=
EXTT9=
EXTT10=
EXTT11=
EXTT12=
PLAYORDER=
